<!-- icon666.com - MILLIONS vector ICONS FREE --><svg id="Layer_3" viewBox="0 0 64 64" xmlns="http://www.w3.org/2000/svg" data-name="Layer 3"><path d="m4 9h28v46h-28z" fill="#f4b2b0" style="fill: rgb(219, 200, 254);"></path><g fill="#b3404a"><path d="m62 10a1 1 0 0 0 1-1v-4a1 1 0 0 0 -1-1h-60a1 1 0 0 0 -1 1v4a1 1 0 0 0 1 1h1v44h-1a1 1 0 0 0 -1 1v4a1 1 0 0 0 1 1h60a1 1 0 0 0 1-1v-4a1 1 0 0 0 -1-1h-1v-44zm-59-4h58v2h-58zm38.293 11.707.707.707v3.586h-4v-3.586l.707-.707a1 1 0 0 0 .293-.707v-2h2v2a1 1 0 0 0 .293.707zm17.707 6.293v2h-26v-2zm-5-7h1a1 1 0 0 1 0 2h-1zm-2 5h-4v-7h4zm7 20h-26v-2h26zm-16.707-8.293.707.707v3.586h-4v-3.586l.707-.707a1 1 0 0 0 .293-.707v-1h2v1a1 1 0 0 0 .293.707zm10 0 .707.707v3.586h-4v-3.586l.707-.707a1 1 0 0 0 .293-.707v-1h2v1a1 1 0 0 0 .293.707zm6.707 4.293h-4v-4a1 1 0 0 0 -.293-.707l-.707-.707v-1.586a1 1 0 0 0 -1-1h-4a1 1 0 0 0 -1 1v1.586l-.707.707a1 1 0 0 0 -.293.707v4h-2v-4a1 1 0 0 0 -.293-.707l-.707-.707v-1.586a1 1 0 0 0 -1-1h-4a1 1 0 0 0 -1 1v1.586l-.707.707a1 1 0 0 0 -.293.707v4h-4v-10h26zm-54-28h26v44h-26zm56 48h-58v-2h58zm-23.829-10h5.658a3 3 0 0 1 -5.658 0zm0 4h5.658a3 3 0 0 1 -5.658 0zm12-4h5.658a3 3 0 0 1 -5.658 0zm0 4h5.658a3 3 0 0 1 -5.658 0zm6.8 2a4.948 4.948 0 0 0 1.029-3 1 1 0 0 0 -1-1h-.026a4.948 4.948 0 0 0 1.026-3 1 1 0 0 0 -1-1h-8a1 1 0 0 0 -1 1 4.948 4.948 0 0 0 1.026 3h-.026a1 1 0 0 0 -1 1 4.948 4.948 0 0 0 1.026 3h-4.052a4.948 4.948 0 0 0 1.026-3 1 1 0 0 0 -1-1h-.026a4.948 4.948 0 0 0 1.026-3 1 1 0 0 0 -1-1h-8a1 1 0 0 0 -1 1 4.948 4.948 0 0 0 1.026 3h-.026a1 1 0 0 0 -1 1 4.948 4.948 0 0 0 1.026 3h-3.026v-10h26v10zm3.029-32h-5v-1h1a3 3 0 0 0 0-6h-1v-1a1 1 0 0 0 -1-1h-6a1 1 0 0 0 -1 1v8h-2v-4a1 1 0 0 0 -.293-.707l-.707-.707v-2.586a1 1 0 0 0 -1-1h-4a1 1 0 0 0 -1 1v2.586l-.707.707a1 1 0 0 0 -.293.707v4h-3v-12h26z" fill="#b3404a" style="fill: rgb(103, 58, 183);"></path><path d="m27 28h2v8h-2z" fill="#b3404a" style="fill: rgb(103, 58, 183);"></path><path d="m7 13v3h2v-2h2v-2h-3a1 1 0 0 0 -1 1z" fill="#b3404a" style="fill: rgb(103, 58, 183);"></path><path d="m9 48h-2v3a1 1 0 0 0 1 1h3v-2h-2z" fill="#b3404a" style="fill: rgb(103, 58, 183);"></path><path d="m28 12h-3v2h2v2h2v-3a1 1 0 0 0 -1-1z" fill="#b3404a" style="fill: rgb(103, 58, 183);"></path><path d="m27 50h-2v2h3a1 1 0 0 0 1-1v-3h-2z" fill="#b3404a" style="fill: rgb(103, 58, 183);"></path><path d="m13 12h2v2h-2z" fill="#b3404a" style="fill: rgb(103, 58, 183);"></path></g></svg>