<!-- icon666.com - MILLIONS vector ICONS FREE --><svg enable-background="new 0 0 32 32" viewBox="0 0 32 32" xmlns="http://www.w3.org/2000/svg"><g id="Layer_3"><path d="m8.925 6.107.873-4.118 13.502 2.87 3.823 5.9-3.517 16.565z" fill="#fff"></path><path d="m23.606 11.088v18.891h-18.766v-23.872h13.797z" fill="#00adef" style="fill: rgb(242, 235, 255);"></path><path d="m23.604 11.083h-4.967v-4.978z" fill="#fff"></path></g><g id="Layer_2"><path d="m27.561 10.503-3.824-5.9c-.072-.111-.186-.189-.315-.217l-13.502-2.87c-.13-.027-.265-.002-.376.07s-.189.185-.217.315l-.789 3.723h-3.68c-.276 0-.5.224-.5.5v23.872c0 .276.224.5.5.5h18.766c.276 0 .5-.224.5-.5v-2.601l3.506-16.514c.028-.131.003-.266-.069-.378zm-22.203 18.992v-22.871h12.796v4.476c0 .276.224.5.5.5h4.47v17.896h-17.766zm17.057-18.895h-3.26v-3.267zm1.71 11.977v-11.473c0-.068-.015-.134-.041-.195-.027-.065-.067-.121-.116-.169l-4.954-4.965c-.091-.095-.217-.155-.359-.155-.004 0-.008.002-.012.002h-9.083l.642-3.025 12.81 2.723 3.598 5.553z" fill="#13699d" style="fill: rgb(103, 58, 183);"></path><g><g><path d="m18.655 16.732h-10.941c-.276 0-.5-.224-.5-.5s.224-.5.5-.5h10.94c.276 0 .5.224.5.5s-.223.5-.499.5z" fill="#13699d" style="fill: rgb(103, 58, 183);"></path></g></g><g><g><path d="m20.946 20.214h-13.232c-.276 0-.5-.224-.5-.5s.224-.5.5-.5h13.232c.276 0 .5.224.5.5s-.223.5-.5.5z" fill="#13699d" style="fill: rgb(103, 58, 183);"></path></g></g><g><g><path d="m20.946 23.696h-13.232c-.276 0-.5-.224-.5-.5s.224-.5.5-.5h13.232c.276 0 .5.224.5.5s-.223.5-.5.5z" fill="#13699d" style="fill: rgb(103, 58, 183);"></path></g></g><g><g><path d="m20.946 27.179h-13.232c-.276 0-.5-.224-.5-.5s.224-.5.5-.5h13.232c.276 0 .5.224.5.5s-.223.5-.5.5z" fill="#13699d" style="fill: rgb(103, 58, 183);"></path></g></g></g></svg>