<!-- icon666.com - MILLIONS vector ICONS FREE --><svg id="icons" enable-background="new 0 0 64 64" viewBox="0 0 64 64" xmlns="http://www.w3.org/2000/svg"><g><g><path d="m4 57h56v3h-56z" fill="#94c1ff" style="fill: rgb(211, 191, 248);"></path></g><g><path d="m4 1h23.01c0 2.21-1.79 4-4 4h-19.01z" fill="#d7e9ff" style="fill: rgb(238, 229, 255);"></path></g><g><path d="m4 60h56v3h-56z" fill="#94c1ff" style="fill: rgb(211, 191, 248);"></path></g><g><path d="m60 40v17h-56v-10-42h19.01c2.21 0 4-1.79 4-4h32.99v20z" fill="#d7e9ff" style="fill: rgb(238, 229, 255);"></path></g></g><g><g><path d="m60 58h-56c-.553 0-1-.447-1-1v-56c0-.552.447-1 1-1h56c.553 0 1 .448 1 1v56c0 .553-.447 1-1 1zm-55-2h54v-54h-54z" fill="#116fff" style="fill: rgb(103, 58, 183);"></path></g><g><path d="m4 64c-.553 0-1-.447-1-1v-6c0-.553.447-1 1-1s1 .447 1 1v6c0 .553-.447 1-1 1z" fill="#116fff" style="fill: rgb(103, 58, 183);"></path></g><g><path d="m60 64h-56c-.553 0-1-.447-1-1s.447-1 1-1h56c.553 0 1 .447 1 1s-.447 1-1 1z" fill="#116fff" style="fill: rgb(103, 58, 183);"></path></g><g><path d="m60 61h-56c-.553 0-1-.447-1-1s.447-1 1-1h56c.553 0 1 .447 1 1s-.447 1-1 1z" fill="#116fff" style="fill: rgb(103, 58, 183);"></path></g><g><path d="m60 64c-.553 0-1-.447-1-1v-6c0-.553.447-1 1-1s1 .447 1 1v6c0 .553-.447 1-1 1z" fill="#116fff" style="fill: rgb(103, 58, 183);"></path></g><g><path d="m18 47.996h-14c-.553 0-1-.447-1-1s.447-1 1-1h14c.553 0 1 .447 1 1s-.447 1-1 1z" fill="#116fff" style="fill: rgb(103, 58, 183);"></path></g><g><path d="m60 22h-22.005c-.553 0-1-.448-1-1s.447-1 1-1h22.005c.553 0 1 .448 1 1s-.447 1-1 1z" fill="#116fff" style="fill: rgb(103, 58, 183);"></path></g><g><path d="m23.007 6c-.553 0-1-.448-1-1s.447-1 1-1c1.654 0 3-1.346 3-3 0-.552.447-1 1-1s1 .448 1 1c0 2.757-2.243 5-5 5z" fill="#116fff" style="fill: rgb(103, 58, 183);"></path></g><g><path d="m23.007 6h-19.007c-.553 0-1-.448-1-1s.447-1 1-1h19.007c.553 0 1 .448 1 1s-.447 1-1 1z" fill="#116fff" style="fill: rgb(103, 58, 183);"></path></g><g><path d="m60 40.999h-8c-.553 0-1-.447-1-1s.447-1 1-1h8c.553 0 1 .447 1 1s-.447 1-1 1z" fill="#116fff" style="fill: rgb(103, 58, 183);"></path></g></g></svg>